<?xml version="1.0" standalone="no"?>
<!DOCTYPE svg PUBLIC "-//W3C//DTD SVG 20010904//EN"
 "http://www.w3.org/TR/2001/REC-SVG-20010904/DTD/svg10.dtd">
<svg version="1.0" xmlns="http://www.w3.org/2000/svg"
 width="512.000000pt" height="512.000000pt" viewBox="0 0 512.000000 512.000000"
 preserveAspectRatio="xMidYMid meet">
<metadata>
Created by potrace 1.14, written by Peter Selinger 2001-2017
</metadata>
<g transform="translate(0.000000,512.000000) scale(0.100000,-0.100000)"
fill="#000000" stroke="none">
<path d="M1391 4784 c-139 -37 -223 -114 -334 -305 -43 -74 -82 -141 -87 -149
-6 -8 -44 -73 -86 -145 -42 -71 -97 -166 -123 -210 -40 -66 -157 -266 -196
-333 -26 -44 -109 -186 -228 -387 -305 -518 -308 -522 -327 -603 -11 -49 -10
-138 4 -203 10 -44 33 -92 83 -175 27 -43 52 -86 56 -94 9 -18 27 -49 152
-260 53 -91 106 -181 117 -200 11 -19 41 -68 65 -109 25 -41 54 -89 64 -107
42 -74 59 -105 139 -239 46 -77 91 -153 100 -170 9 -16 45 -76 79 -133 33 -56
61 -107 61 -112 0 -6 3 -10 8 -10 4 0 12 -10 18 -23 6 -12 35 -62 64 -112 29
-49 61 -106 72 -125 77 -136 194 -225 328 -250 35 -7 451 -10 1161 -10 1077 1
1109 1 1165 20 144 50 206 109 317 300 30 52 114 196 187 320 73 124 187 317
253 430 66 113 132 225 147 250 33 55 190 321 218 370 11 19 62 107 114 195
113 192 127 225 134 319 10 115 -9 182 -92 321 -22 39 -71 120 -107 181 -36
62 -75 127 -85 145 -50 89 -158 270 -193 326 -21 34 -39 65 -39 68 0 2 -33 60
-74 127 -40 68 -180 305 -311 528 -253 431 -278 466 -385 524 -106 58 -60 56
-1270 55 -944 0 -1123 -2 -1169 -15z"/>
</g>
</svg>
